<svg width="24" height="24" viewBox="0 0 24 24" fill="none" xmlns="http://www.w3.org/2000/svg">
<path opacity="0.6" fill-rule="evenodd" clip-rule="evenodd" d="M2.38286 14.75C2.28959 14.4232 2.21252 14.0896 2.15259 13.75H21.8474C21.7874 14.0896 21.7104 14.4232 21.6171 14.75H2.38286ZM3.48732 17.25C3.28851 16.9283 3.10743 16.5945 2.94543 16.25H21.0545C20.8925 16.5945 20.7114 16.9283 20.5126 17.25H3.48732ZM5.67988 19.75C5.30336 19.4426 4.94967 19.1083 4.62172 18.75H19.3782C19.0503 19.1083 18.6966 19.4426 18.3201 19.75H5.67988ZM12 22C10.6522 22 9.36674 21.7334 8.1934 21.25H15.8066C14.6332 21.7334 13.3477 22 12 22Z" fill="#4E5EAF"/>
<path d="M22 12C22 12.0836 21.999 12.1669 21.9969 12.25H16.9939C16.9979 12.1672 17 12.0838 17 12C17 9.23858 14.7614 7 12 7C9.23858 7 7 9.23858 7 12C7 12.0838 7.00206 12.1672 7.00614 12.25H2.00306C2.00103 12.1669 2 12.0836 2 12C2 6.47715 6.47715 2 12 2C17.5228 2 22 6.47715 22 12Z" fill="#4E5EAF"/>
</svg>
