<svg width="24" height="24" viewBox="0 0 24 24" fill="none" xmlns="http://www.w3.org/2000/svg">
<path opacity="0.2" fill-rule="evenodd" clip-rule="evenodd" d="M7.03961 13.1928C6.52655 13.4373 5.8704 13.75 5 13.75C4.58579 13.75 4.25 13.4142 4.25 13C4.25 12.5858 4.58578 12.25 5 12.25C5.51092 12.25 5.89538 12.0763 6.42755 11.8229C6.43843 11.8177 6.44938 11.8125 6.46039 11.8072C6.97344 11.5627 7.6296 11.25 8.5 11.25C9.0119 11.25 9.52381 11.4277 9.95995 11.6354C10.4074 11.8484 10.8404 12.125 11.2109 12.3897C11.5143 12.6064 11.7854 12.8221 12 13.0012C12.2146 12.8221 12.4857 12.6064 12.7891 12.3897C13.1596 12.125 13.5926 11.8484 14.04 11.6354C14.4762 11.4277 14.9881 11.25 15.5 11.25C16.3704 11.25 17.0266 11.5627 17.5396 11.8072C17.5506 11.8125 17.5616 11.8177 17.5725 11.8229C18.1046 12.0763 18.4891 12.25 19 12.25C19.4142 12.25 19.75 12.5858 19.75 13C19.75 13.4142 19.4142 13.75 19 13.75C18.1296 13.75 17.4734 13.4373 16.9604 13.1928C16.9494 13.1875 16.9384 13.1823 16.9275 13.1771C16.3954 12.9237 16.0109 12.75 15.5 12.75C15.3119 12.75 15.0363 12.8223 14.685 12.9896C14.3449 13.1516 13.9904 13.375 13.6609 13.6103C13.3338 13.844 13.0453 14.0793 12.8381 14.2569C12.7349 14.3454 12.6529 14.4186 12.5975 14.469C12.5698 14.4942 12.5488 14.5136 12.5352 14.5263L12.5204 14.5401L12.5173 14.543L12 15.0357L11.4831 14.5434L11.4796 14.5401L11.4648 14.5263C11.4512 14.5136 11.4302 14.4942 11.4025 14.469C11.3471 14.4186 11.2651 14.3454 11.1619 14.2569C10.9547 14.0793 10.6662 13.844 10.3391 13.6103C10.0096 13.375 9.65514 13.1516 9.31505 12.9896C8.96369 12.8223 8.6881 12.75 8.5 12.75C7.98908 12.75 7.60462 12.9237 7.07245 13.1771C7.06157 13.1823 7.05062 13.1875 7.03961 13.1928Z" fill="#E86187"/>
<path fill-rule="evenodd" clip-rule="evenodd" d="M7.03961 12.1928C6.52655 12.4373 5.8704 12.75 5 12.75C4.58579 12.75 4.25 12.4142 4.25 12C4.25 11.5858 4.58578 11.25 5 11.25C5.51092 11.25 5.89538 11.0763 6.42755 10.8229C6.43843 10.8177 6.44938 10.8125 6.46039 10.8072C6.97344 10.5627 7.6296 10.25 8.5 10.25C9.0119 10.25 9.52381 10.4277 9.95995 10.6354C10.4074 10.8484 10.8404 11.125 11.2109 11.3897C11.5143 11.6064 11.7854 11.8221 12 12.0012C12.2146 11.8221 12.4857 11.6064 12.7891 11.3897C13.1596 11.125 13.5926 10.8484 14.04 10.6354C14.4762 10.4277 14.9881 10.25 15.5 10.25C16.3704 10.25 17.0266 10.5627 17.5396 10.8072C17.5506 10.8125 17.5616 10.8177 17.5725 10.8229C18.1046 11.0763 18.4891 11.25 19 11.25C19.4142 11.25 19.75 11.5858 19.75 12C19.75 12.4142 19.4142 12.75 19 12.75C18.1296 12.75 17.4734 12.4373 16.9604 12.1928C16.9494 12.1875 16.9384 12.1823 16.9275 12.1771C16.3954 11.9237 16.0109 11.75 15.5 11.75C15.3119 11.75 15.0363 11.8223 14.685 11.9896C14.3449 12.1516 13.9904 12.375 13.6609 12.6103C13.3338 12.844 13.0453 13.0793 12.8381 13.2569C12.7349 13.3454 12.6529 13.4186 12.5975 13.469C12.5698 13.4942 12.5488 13.5136 12.5352 13.5263L12.5204 13.5401L12.5173 13.543L12 14.0357L11.4831 13.5434L11.4796 13.5401L11.4648 13.5263C11.4512 13.5136 11.4302 13.4942 11.4025 13.469C11.3471 13.4186 11.2651 13.3454 11.1619 13.2569C10.9547 13.0793 10.6662 12.844 10.3391 12.6103C10.0096 12.375 9.65514 12.1516 9.31505 11.9896C8.96369 11.8223 8.6881 11.75 8.5 11.75C7.98908 11.75 7.60462 11.9237 7.07245 12.1771C7.06157 12.1823 7.05062 12.1875 7.03961 12.1928Z" fill="#E86187"/>
</svg>
